<mxfile host="app.diagrams.net" modified="2024-03-30T06:31:59.772Z" agent="Mozilla/5.0 (Macintosh; Intel Mac OS X 10_15_7) AppleWebKit/537.36 (KHTML, like Gecko) Chrome/123.0.0.0 Safari/537.36" etag="QcBu_gv_OoXqx6UoDJSN" version="24.1.0" type="device">
  <diagram name="ページ1" id="_p8y2ZMvJbF9bzFV4q6h">
    <mxGraphModel dx="1423" dy="363" grid="1" gridSize="10" guides="1" tooltips="1" connect="1" arrows="1" fold="1" page="1" pageScale="1" pageWidth="827" pageHeight="1169" math="0" shadow="0">
      <root>
        <mxCell id="0" />
        <mxCell id="1" parent="0" />
        <mxCell id="Phm8OfdDfyKniIvOWUuk-1" value="" style="rounded=0;whiteSpace=wrap;html=1;fillColor=#d5e8d4;strokeColor=none;" parent="1" vertex="1">
          <mxGeometry x="-80" y="260" width="740" height="60" as="geometry" />
        </mxCell>
        <mxCell id="Phm8OfdDfyKniIvOWUuk-31" style="edgeStyle=orthogonalEdgeStyle;rounded=0;orthogonalLoop=1;jettySize=auto;html=1;entryX=0;entryY=0.5;entryDx=0;entryDy=0;" parent="1" source="Phm8OfdDfyKniIvOWUuk-17" target="Phm8OfdDfyKniIvOWUuk-20" edge="1">
          <mxGeometry relative="1" as="geometry" />
        </mxCell>
        <mxCell id="Phm8OfdDfyKniIvOWUuk-17" value="" style="ellipse;whiteSpace=wrap;html=1;aspect=fixed;dashed=1;" parent="1" vertex="1">
          <mxGeometry x="60" y="250" width="80" height="80" as="geometry" />
        </mxCell>
        <mxCell id="Phm8OfdDfyKniIvOWUuk-5" value="" style="rounded=0;whiteSpace=wrap;html=1;" parent="1" vertex="1">
          <mxGeometry x="82.5" y="265" width="30" height="30" as="geometry" />
        </mxCell>
        <mxCell id="Phm8OfdDfyKniIvOWUuk-2" value="" style="rounded=0;whiteSpace=wrap;html=1;" parent="1" vertex="1">
          <mxGeometry x="67.5" y="270" width="30" height="30" as="geometry" />
        </mxCell>
        <mxCell id="Phm8OfdDfyKniIvOWUuk-6" value="" style="rounded=0;whiteSpace=wrap;html=1;" parent="1" vertex="1">
          <mxGeometry x="92.5" y="275" width="30" height="30" as="geometry" />
        </mxCell>
        <mxCell id="Phm8OfdDfyKniIvOWUuk-3" value="" style="rounded=0;whiteSpace=wrap;html=1;" parent="1" vertex="1">
          <mxGeometry x="77.5" y="280" width="30" height="30" as="geometry" />
        </mxCell>
        <mxCell id="Phm8OfdDfyKniIvOWUuk-7" value="" style="rounded=0;whiteSpace=wrap;html=1;" parent="1" vertex="1">
          <mxGeometry x="102.5" y="285" width="30" height="30" as="geometry" />
        </mxCell>
        <mxCell id="Phm8OfdDfyKniIvOWUuk-4" value="" style="rounded=0;whiteSpace=wrap;html=1;" parent="1" vertex="1">
          <mxGeometry x="87.5" y="290" width="30" height="30" as="geometry" />
        </mxCell>
        <mxCell id="p1uvAuJWru4tgl7bkKN8-23" value="" style="rounded=0;whiteSpace=wrap;html=1;fillColor=#dae8fc;strokeColor=none;" parent="1" vertex="1">
          <mxGeometry x="40" width="620" height="60" as="geometry" />
        </mxCell>
        <mxCell id="p1uvAuJWru4tgl7bkKN8-22" value="" style="rounded=0;whiteSpace=wrap;html=1;fillColor=#d5e8d4;strokeColor=none;" parent="1" vertex="1">
          <mxGeometry x="40" y="60" width="620" height="60" as="geometry" />
        </mxCell>
        <mxCell id="p1uvAuJWru4tgl7bkKN8-10" style="edgeStyle=orthogonalEdgeStyle;rounded=0;orthogonalLoop=1;jettySize=auto;html=1;entryX=0;entryY=0.5;entryDx=0;entryDy=0;" parent="1" source="p1uvAuJWru4tgl7bkKN8-1" target="p1uvAuJWru4tgl7bkKN8-6" edge="1">
          <mxGeometry relative="1" as="geometry" />
        </mxCell>
        <mxCell id="p1uvAuJWru4tgl7bkKN8-15" style="edgeStyle=orthogonalEdgeStyle;rounded=0;orthogonalLoop=1;jettySize=auto;html=1;entryX=0;entryY=0.5;entryDx=0;entryDy=0;curved=1;" parent="1" source="p1uvAuJWru4tgl7bkKN8-1" target="p1uvAuJWru4tgl7bkKN8-3" edge="1">
          <mxGeometry relative="1" as="geometry" />
        </mxCell>
        <mxCell id="p1uvAuJWru4tgl7bkKN8-1" value="" style="ellipse;whiteSpace=wrap;html=1;aspect=fixed;" parent="1" vertex="1">
          <mxGeometry x="180" y="80" width="20" height="20" as="geometry" />
        </mxCell>
        <mxCell id="p1uvAuJWru4tgl7bkKN8-16" style="edgeStyle=orthogonalEdgeStyle;rounded=0;orthogonalLoop=1;jettySize=auto;html=1;entryX=0;entryY=0.5;entryDx=0;entryDy=0;curved=1;" parent="1" source="p1uvAuJWru4tgl7bkKN8-3" target="p1uvAuJWru4tgl7bkKN8-6" edge="1">
          <mxGeometry relative="1" as="geometry" />
        </mxCell>
        <mxCell id="p1uvAuJWru4tgl7bkKN8-3" value="" style="ellipse;whiteSpace=wrap;html=1;aspect=fixed;" parent="1" vertex="1">
          <mxGeometry x="240" y="20" width="20" height="20" as="geometry" />
        </mxCell>
        <mxCell id="p1uvAuJWru4tgl7bkKN8-5" value="変更行数&lt;br&gt;+3,000&lt;br&gt;-1,000" style="text;html=1;strokeColor=none;fillColor=none;align=center;verticalAlign=middle;whiteSpace=wrap;rounded=0;" parent="1" vertex="1">
          <mxGeometry x="272.5" y="15" width="65" height="50" as="geometry" />
        </mxCell>
        <mxCell id="p1uvAuJWru4tgl7bkKN8-6" value="" style="ellipse;whiteSpace=wrap;html=1;aspect=fixed;" parent="1" vertex="1">
          <mxGeometry x="300" y="80" width="20" height="20" as="geometry" />
        </mxCell>
        <mxCell id="p1uvAuJWru4tgl7bkKN8-11" style="edgeStyle=orthogonalEdgeStyle;rounded=0;orthogonalLoop=1;jettySize=auto;html=1;" parent="1" source="p1uvAuJWru4tgl7bkKN8-7" target="p1uvAuJWru4tgl7bkKN8-8" edge="1">
          <mxGeometry relative="1" as="geometry" />
        </mxCell>
        <mxCell id="p1uvAuJWru4tgl7bkKN8-17" style="edgeStyle=orthogonalEdgeStyle;rounded=0;orthogonalLoop=1;jettySize=auto;html=1;entryX=0;entryY=0.5;entryDx=0;entryDy=0;curved=1;" parent="1" source="p1uvAuJWru4tgl7bkKN8-7" target="p1uvAuJWru4tgl7bkKN8-9" edge="1">
          <mxGeometry relative="1" as="geometry" />
        </mxCell>
        <mxCell id="p1uvAuJWru4tgl7bkKN8-7" value="" style="ellipse;whiteSpace=wrap;html=1;aspect=fixed;" parent="1" vertex="1">
          <mxGeometry x="370" y="80" width="20" height="20" as="geometry" />
        </mxCell>
        <mxCell id="p1uvAuJWru4tgl7bkKN8-8" value="" style="ellipse;whiteSpace=wrap;html=1;aspect=fixed;" parent="1" vertex="1">
          <mxGeometry x="580" y="80" width="20" height="20" as="geometry" />
        </mxCell>
        <mxCell id="p1uvAuJWru4tgl7bkKN8-19" style="edgeStyle=orthogonalEdgeStyle;rounded=0;orthogonalLoop=1;jettySize=auto;html=1;" parent="1" source="p1uvAuJWru4tgl7bkKN8-9" target="p1uvAuJWru4tgl7bkKN8-13" edge="1">
          <mxGeometry relative="1" as="geometry" />
        </mxCell>
        <mxCell id="p1uvAuJWru4tgl7bkKN8-9" value="" style="ellipse;whiteSpace=wrap;html=1;aspect=fixed;" parent="1" vertex="1">
          <mxGeometry x="430" y="25" width="20" height="20" as="geometry" />
        </mxCell>
        <mxCell id="p1uvAuJWru4tgl7bkKN8-21" style="edgeStyle=orthogonalEdgeStyle;rounded=0;orthogonalLoop=1;jettySize=auto;html=1;entryX=0;entryY=0.5;entryDx=0;entryDy=0;curved=1;" parent="1" source="p1uvAuJWru4tgl7bkKN8-12" target="p1uvAuJWru4tgl7bkKN8-8" edge="1">
          <mxGeometry relative="1" as="geometry" />
        </mxCell>
        <mxCell id="p1uvAuJWru4tgl7bkKN8-12" value="" style="ellipse;whiteSpace=wrap;html=1;aspect=fixed;" parent="1" vertex="1">
          <mxGeometry x="520" y="25" width="20" height="20" as="geometry" />
        </mxCell>
        <mxCell id="p1uvAuJWru4tgl7bkKN8-20" style="edgeStyle=orthogonalEdgeStyle;rounded=0;orthogonalLoop=1;jettySize=auto;html=1;" parent="1" source="p1uvAuJWru4tgl7bkKN8-13" target="p1uvAuJWru4tgl7bkKN8-12" edge="1">
          <mxGeometry relative="1" as="geometry" />
        </mxCell>
        <mxCell id="p1uvAuJWru4tgl7bkKN8-13" value="" style="ellipse;whiteSpace=wrap;html=1;aspect=fixed;" parent="1" vertex="1">
          <mxGeometry x="474" y="25" width="20" height="20" as="geometry" />
        </mxCell>
        <mxCell id="p1uvAuJWru4tgl7bkKN8-14" value="変更行数&lt;br&gt;+10,000&lt;br&gt;-2,000" style="text;html=1;strokeColor=none;fillColor=none;align=center;verticalAlign=middle;whiteSpace=wrap;rounded=0;" parent="1" vertex="1">
          <mxGeometry x="555" y="15" width="60" height="50" as="geometry" />
        </mxCell>
        <mxCell id="p1uvAuJWru4tgl7bkKN8-83" value="&lt;font style=&quot;font-size: 36px;&quot;&gt;🙅‍♂️&lt;/font&gt;" style="text;html=1;strokeColor=none;fillColor=none;align=center;verticalAlign=middle;whiteSpace=wrap;rounded=0;" parent="1" vertex="1">
          <mxGeometry x="-80" y="200" width="50" height="60" as="geometry" />
        </mxCell>
        <mxCell id="p1uvAuJWru4tgl7bkKN8-86" value="" style="group" parent="1" vertex="1" connectable="0">
          <mxGeometry x="50" y="10" width="120" height="45" as="geometry" />
        </mxCell>
        <mxCell id="p1uvAuJWru4tgl7bkKN8-4" value="開発用ブランチ" style="text;html=1;strokeColor=none;fillColor=none;align=center;verticalAlign=middle;whiteSpace=wrap;rounded=0;" parent="p1uvAuJWru4tgl7bkKN8-86" vertex="1">
          <mxGeometry x="9.5" width="101" height="20" as="geometry" />
        </mxCell>
        <mxCell id="p1uvAuJWru4tgl7bkKN8-85" value="&lt;div style=&quot;font-size: 10px;&quot;&gt;特定の開発者のみが&lt;span style=&quot;background-color: initial;&quot;&gt;見る&lt;/span&gt;&lt;/div&gt;" style="text;html=1;strokeColor=none;fillColor=none;align=center;verticalAlign=middle;whiteSpace=wrap;rounded=0;fontSize=10;fontStyle=1" parent="p1uvAuJWru4tgl7bkKN8-86" vertex="1">
          <mxGeometry y="20" width="120" height="25" as="geometry" />
        </mxCell>
        <mxCell id="p1uvAuJWru4tgl7bkKN8-88" value="" style="group" parent="1" vertex="1" connectable="0">
          <mxGeometry x="54.5" y="65" width="111" height="45" as="geometry" />
        </mxCell>
        <mxCell id="p1uvAuJWru4tgl7bkKN8-2" value="メインブランチ" style="text;html=1;strokeColor=none;fillColor=none;align=center;verticalAlign=middle;whiteSpace=wrap;rounded=0;" parent="p1uvAuJWru4tgl7bkKN8-88" vertex="1">
          <mxGeometry width="111" height="22.5" as="geometry" />
        </mxCell>
        <mxCell id="p1uvAuJWru4tgl7bkKN8-87" value="&lt;font style=&quot;font-size: 10px;&quot;&gt;&lt;b&gt;全開発者が見る&lt;/b&gt;&lt;/font&gt;" style="text;html=1;strokeColor=none;fillColor=none;align=center;verticalAlign=middle;whiteSpace=wrap;rounded=0;" parent="p1uvAuJWru4tgl7bkKN8-88" vertex="1">
          <mxGeometry y="22.5" width="111" height="22.5" as="geometry" />
        </mxCell>
        <mxCell id="Phm8OfdDfyKniIvOWUuk-18" value="" style="edgeStyle=orthogonalEdgeStyle;rounded=0;orthogonalLoop=1;jettySize=auto;html=1;entryX=0.5;entryY=1;entryDx=0;entryDy=0;dashed=1;" parent="1" source="Phm8OfdDfyKniIvOWUuk-8" target="Phm8OfdDfyKniIvOWUuk-17" edge="1">
          <mxGeometry relative="1" as="geometry" />
        </mxCell>
        <mxCell id="Phm8OfdDfyKniIvOWUuk-8" value="" style="sketch=0;outlineConnect=0;fontColor=#232F3E;gradientColor=none;fillColor=#232F3D;strokeColor=none;dashed=0;verticalLabelPosition=bottom;verticalAlign=top;align=center;html=1;fontSize=12;fontStyle=0;aspect=fixed;pointerEvents=1;shape=mxgraph.aws4.user;" parent="1" vertex="1">
          <mxGeometry x="86" y="358" width="28" height="28" as="geometry" />
        </mxCell>
        <mxCell id="Phm8OfdDfyKniIvOWUuk-21" style="edgeStyle=orthogonalEdgeStyle;rounded=0;orthogonalLoop=1;jettySize=auto;html=1;entryX=0.5;entryY=1;entryDx=0;entryDy=0;dashed=1;" parent="1" source="Phm8OfdDfyKniIvOWUuk-9" target="Phm8OfdDfyKniIvOWUuk-20" edge="1">
          <mxGeometry relative="1" as="geometry" />
        </mxCell>
        <mxCell id="Phm8OfdDfyKniIvOWUuk-9" value="" style="sketch=0;outlineConnect=0;fontColor=#232F3E;gradientColor=none;fillColor=#232F3D;strokeColor=none;dashed=0;verticalLabelPosition=bottom;verticalAlign=top;align=center;html=1;fontSize=12;fontStyle=0;aspect=fixed;pointerEvents=1;shape=mxgraph.aws4.user;" parent="1" vertex="1">
          <mxGeometry x="346" y="358" width="28" height="28" as="geometry" />
        </mxCell>
        <mxCell id="Phm8OfdDfyKniIvOWUuk-16" value="トランクブランチ" style="text;html=1;strokeColor=none;fillColor=none;align=center;verticalAlign=middle;whiteSpace=wrap;rounded=0;" parent="1" vertex="1">
          <mxGeometry x="-71" y="278.75" width="111" height="22.5" as="geometry" />
        </mxCell>
        <mxCell id="Phm8OfdDfyKniIvOWUuk-32" style="edgeStyle=orthogonalEdgeStyle;rounded=0;orthogonalLoop=1;jettySize=auto;html=1;entryX=0;entryY=0.5;entryDx=0;entryDy=0;" parent="1" source="Phm8OfdDfyKniIvOWUuk-20" target="Phm8OfdDfyKniIvOWUuk-22" edge="1">
          <mxGeometry relative="1" as="geometry" />
        </mxCell>
        <mxCell id="Phm8OfdDfyKniIvOWUuk-20" value="" style="ellipse;whiteSpace=wrap;html=1;aspect=fixed;dashed=1;" parent="1" vertex="1">
          <mxGeometry x="320" y="250" width="80" height="80" as="geometry" />
        </mxCell>
        <mxCell id="Phm8OfdDfyKniIvOWUuk-10" value="" style="rounded=0;whiteSpace=wrap;html=1;" parent="1" vertex="1">
          <mxGeometry x="342.5" y="267.5" width="30" height="30" as="geometry" />
        </mxCell>
        <mxCell id="Phm8OfdDfyKniIvOWUuk-11" value="" style="rounded=0;whiteSpace=wrap;html=1;" parent="1" vertex="1">
          <mxGeometry x="327.5" y="272.5" width="30" height="30" as="geometry" />
        </mxCell>
        <mxCell id="Phm8OfdDfyKniIvOWUuk-12" value="" style="rounded=0;whiteSpace=wrap;html=1;" parent="1" vertex="1">
          <mxGeometry x="352.5" y="277.5" width="30" height="30" as="geometry" />
        </mxCell>
        <mxCell id="Phm8OfdDfyKniIvOWUuk-13" value="" style="rounded=0;whiteSpace=wrap;html=1;" parent="1" vertex="1">
          <mxGeometry x="337.5" y="282.5" width="30" height="30" as="geometry" />
        </mxCell>
        <mxCell id="Phm8OfdDfyKniIvOWUuk-14" value="" style="rounded=0;whiteSpace=wrap;html=1;" parent="1" vertex="1">
          <mxGeometry x="362.5" y="287.5" width="30" height="30" as="geometry" />
        </mxCell>
        <mxCell id="Phm8OfdDfyKniIvOWUuk-22" value="" style="ellipse;whiteSpace=wrap;html=1;aspect=fixed;dashed=1;" parent="1" vertex="1">
          <mxGeometry x="520" y="250" width="80" height="80" as="geometry" />
        </mxCell>
        <mxCell id="Phm8OfdDfyKniIvOWUuk-23" value="" style="rounded=0;whiteSpace=wrap;html=1;" parent="1" vertex="1">
          <mxGeometry x="542.5" y="262.5" width="30" height="30" as="geometry" />
        </mxCell>
        <mxCell id="Phm8OfdDfyKniIvOWUuk-24" value="" style="rounded=0;whiteSpace=wrap;html=1;" parent="1" vertex="1">
          <mxGeometry x="527.5" y="267.5" width="30" height="30" as="geometry" />
        </mxCell>
        <mxCell id="Phm8OfdDfyKniIvOWUuk-25" value="" style="rounded=0;whiteSpace=wrap;html=1;" parent="1" vertex="1">
          <mxGeometry x="552.5" y="272.5" width="30" height="30" as="geometry" />
        </mxCell>
        <mxCell id="Phm8OfdDfyKniIvOWUuk-26" value="" style="rounded=0;whiteSpace=wrap;html=1;" parent="1" vertex="1">
          <mxGeometry x="537.5" y="277.5" width="30" height="30" as="geometry" />
        </mxCell>
        <mxCell id="Phm8OfdDfyKniIvOWUuk-27" value="" style="rounded=0;whiteSpace=wrap;html=1;" parent="1" vertex="1">
          <mxGeometry x="562.5" y="282.5" width="30" height="30" as="geometry" />
        </mxCell>
        <mxCell id="Phm8OfdDfyKniIvOWUuk-28" value="" style="rounded=0;whiteSpace=wrap;html=1;" parent="1" vertex="1">
          <mxGeometry x="547.5" y="287.5" width="30" height="30" as="geometry" />
        </mxCell>
        <mxCell id="Phm8OfdDfyKniIvOWUuk-29" style="edgeStyle=orthogonalEdgeStyle;rounded=0;orthogonalLoop=1;jettySize=auto;html=1;entryX=0.5;entryY=1;entryDx=0;entryDy=0;dashed=1;" parent="1" source="Phm8OfdDfyKniIvOWUuk-30" target="Phm8OfdDfyKniIvOWUuk-22" edge="1">
          <mxGeometry relative="1" as="geometry">
            <mxPoint x="561.5" y="338" as="targetPoint" />
          </mxGeometry>
        </mxCell>
        <mxCell id="Phm8OfdDfyKniIvOWUuk-30" value="" style="sketch=0;outlineConnect=0;fontColor=#232F3E;gradientColor=none;fillColor=#232F3D;strokeColor=none;dashed=0;verticalLabelPosition=bottom;verticalAlign=top;align=center;html=1;fontSize=12;fontStyle=0;aspect=fixed;pointerEvents=1;shape=mxgraph.aws4.user;" parent="1" vertex="1">
          <mxGeometry x="546" y="358" width="28" height="28" as="geometry" />
        </mxCell>
        <mxCell id="Phm8OfdDfyKniIvOWUuk-33" value="変更行数&lt;br&gt;+12,000&lt;br&gt;-2,000" style="text;html=1;strokeColor=none;fillColor=none;align=center;verticalAlign=middle;whiteSpace=wrap;rounded=0;" parent="1" vertex="1">
          <mxGeometry x="67.5" y="200" width="65" height="50" as="geometry" />
        </mxCell>
        <mxCell id="Phm8OfdDfyKniIvOWUuk-34" value="変更行数&lt;br&gt;+7,500&lt;br&gt;-4,000" style="text;html=1;strokeColor=none;fillColor=none;align=center;verticalAlign=middle;whiteSpace=wrap;rounded=0;" parent="1" vertex="1">
          <mxGeometry x="327.5" y="200" width="65" height="50" as="geometry" />
        </mxCell>
        <mxCell id="Phm8OfdDfyKniIvOWUuk-35" value="変更行数&lt;br&gt;+9,000&lt;br&gt;-1,500" style="text;html=1;strokeColor=none;fillColor=none;align=center;verticalAlign=middle;whiteSpace=wrap;rounded=0;" parent="1" vertex="1">
          <mxGeometry x="530" y="200" width="65" height="50" as="geometry" />
        </mxCell>
        <mxCell id="Phm8OfdDfyKniIvOWUuk-36" value="" style="rounded=0;whiteSpace=wrap;html=1;fillColor=#d5e8d4;strokeColor=none;" parent="1" vertex="1">
          <mxGeometry x="-80" y="550" width="740" height="60" as="geometry" />
        </mxCell>
        <mxCell id="Phm8OfdDfyKniIvOWUuk-75" style="edgeStyle=orthogonalEdgeStyle;rounded=0;orthogonalLoop=1;jettySize=auto;html=1;entryX=0;entryY=0.5;entryDx=0;entryDy=0;" parent="1" source="Phm8OfdDfyKniIvOWUuk-38" target="Phm8OfdDfyKniIvOWUuk-70" edge="1">
          <mxGeometry relative="1" as="geometry" />
        </mxCell>
        <mxCell id="Phm8OfdDfyKniIvOWUuk-38" value="" style="ellipse;whiteSpace=wrap;html=1;aspect=fixed;dashed=1;" parent="1" vertex="1">
          <mxGeometry x="60" y="540" width="80" height="80" as="geometry" />
        </mxCell>
        <mxCell id="Phm8OfdDfyKniIvOWUuk-44" value="" style="rounded=0;whiteSpace=wrap;html=1;" parent="1" vertex="1">
          <mxGeometry x="85" y="565" width="30" height="30" as="geometry" />
        </mxCell>
        <mxCell id="Phm8OfdDfyKniIvOWUuk-45" value="&lt;font style=&quot;font-size: 36px;&quot;&gt;🙆‍♂️&lt;/font&gt;" style="text;html=1;strokeColor=none;fillColor=none;align=center;verticalAlign=middle;whiteSpace=wrap;rounded=0;" parent="1" vertex="1">
          <mxGeometry x="-80" y="490" width="50" height="60" as="geometry" />
        </mxCell>
        <mxCell id="Phm8OfdDfyKniIvOWUuk-46" value="" style="edgeStyle=orthogonalEdgeStyle;rounded=0;orthogonalLoop=1;jettySize=auto;html=1;entryX=0.5;entryY=1;entryDx=0;entryDy=0;" parent="1" source="Phm8OfdDfyKniIvOWUuk-47" target="Phm8OfdDfyKniIvOWUuk-38" edge="1">
          <mxGeometry relative="1" as="geometry" />
        </mxCell>
        <mxCell id="Phm8OfdDfyKniIvOWUuk-47" value="" style="sketch=0;outlineConnect=0;fontColor=#232F3E;gradientColor=none;fillColor=#232F3D;strokeColor=none;dashed=0;verticalLabelPosition=bottom;verticalAlign=top;align=center;html=1;fontSize=12;fontStyle=0;aspect=fixed;pointerEvents=1;shape=mxgraph.aws4.user;" parent="1" vertex="1">
          <mxGeometry x="86" y="648" width="28" height="28" as="geometry" />
        </mxCell>
        <mxCell id="Phm8OfdDfyKniIvOWUuk-48" style="edgeStyle=orthogonalEdgeStyle;rounded=0;orthogonalLoop=1;jettySize=auto;html=1;entryX=0.5;entryY=1;entryDx=0;entryDy=0;" parent="1" source="Phm8OfdDfyKniIvOWUuk-49" target="Phm8OfdDfyKniIvOWUuk-52" edge="1">
          <mxGeometry relative="1" as="geometry" />
        </mxCell>
        <mxCell id="Phm8OfdDfyKniIvOWUuk-49" value="" style="sketch=0;outlineConnect=0;fontColor=#232F3E;gradientColor=none;fillColor=#232F3D;strokeColor=none;dashed=0;verticalLabelPosition=bottom;verticalAlign=top;align=center;html=1;fontSize=12;fontStyle=0;aspect=fixed;pointerEvents=1;shape=mxgraph.aws4.user;" parent="1" vertex="1">
          <mxGeometry x="286" y="648" width="28" height="28" as="geometry" />
        </mxCell>
        <mxCell id="Phm8OfdDfyKniIvOWUuk-50" value="トランクブランチ" style="text;html=1;strokeColor=none;fillColor=none;align=center;verticalAlign=middle;whiteSpace=wrap;rounded=0;" parent="1" vertex="1">
          <mxGeometry x="-71" y="568.75" width="111" height="22.5" as="geometry" />
        </mxCell>
        <mxCell id="Phm8OfdDfyKniIvOWUuk-84" style="edgeStyle=orthogonalEdgeStyle;rounded=0;orthogonalLoop=1;jettySize=auto;html=1;entryX=0;entryY=0.5;entryDx=0;entryDy=0;" parent="1" source="Phm8OfdDfyKniIvOWUuk-52" target="Phm8OfdDfyKniIvOWUuk-79" edge="1">
          <mxGeometry relative="1" as="geometry" />
        </mxCell>
        <mxCell id="Phm8OfdDfyKniIvOWUuk-52" value="" style="ellipse;whiteSpace=wrap;html=1;aspect=fixed;dashed=1;" parent="1" vertex="1">
          <mxGeometry x="260" y="540" width="80" height="80" as="geometry" />
        </mxCell>
        <mxCell id="Phm8OfdDfyKniIvOWUuk-55" value="" style="rounded=0;whiteSpace=wrap;html=1;" parent="1" vertex="1">
          <mxGeometry x="292.5" y="562.5" width="30" height="30" as="geometry" />
        </mxCell>
        <mxCell id="Phm8OfdDfyKniIvOWUuk-56" value="" style="rounded=0;whiteSpace=wrap;html=1;" parent="1" vertex="1">
          <mxGeometry x="277.5" y="567.5" width="30" height="30" as="geometry" />
        </mxCell>
        <mxCell id="Phm8OfdDfyKniIvOWUuk-58" value="" style="ellipse;whiteSpace=wrap;html=1;aspect=fixed;dashed=1;" parent="1" vertex="1">
          <mxGeometry x="557.5" y="540" width="80" height="80" as="geometry" />
        </mxCell>
        <mxCell id="Phm8OfdDfyKniIvOWUuk-65" style="edgeStyle=orthogonalEdgeStyle;rounded=0;orthogonalLoop=1;jettySize=auto;html=1;entryX=0.5;entryY=1;entryDx=0;entryDy=0;" parent="1" source="Phm8OfdDfyKniIvOWUuk-66" target="Phm8OfdDfyKniIvOWUuk-58" edge="1">
          <mxGeometry relative="1" as="geometry">
            <mxPoint x="599" y="628" as="targetPoint" />
          </mxGeometry>
        </mxCell>
        <mxCell id="Phm8OfdDfyKniIvOWUuk-66" value="" style="sketch=0;outlineConnect=0;fontColor=#232F3E;gradientColor=none;fillColor=#232F3D;strokeColor=none;dashed=0;verticalLabelPosition=bottom;verticalAlign=top;align=center;html=1;fontSize=12;fontStyle=0;aspect=fixed;pointerEvents=1;shape=mxgraph.aws4.user;" parent="1" vertex="1">
          <mxGeometry x="583.5" y="648" width="28" height="28" as="geometry" />
        </mxCell>
        <mxCell id="Phm8OfdDfyKniIvOWUuk-67" value="変更行数&lt;br&gt;+100&lt;br&gt;-10" style="text;html=1;strokeColor=none;fillColor=none;align=center;verticalAlign=middle;whiteSpace=wrap;rounded=0;" parent="1" vertex="1">
          <mxGeometry x="65" y="490" width="65" height="50" as="geometry" />
        </mxCell>
        <mxCell id="Phm8OfdDfyKniIvOWUuk-68" value="変更行数&lt;br&gt;+500&lt;br&gt;-100" style="text;html=1;strokeColor=none;fillColor=none;align=center;verticalAlign=middle;whiteSpace=wrap;rounded=0;" parent="1" vertex="1">
          <mxGeometry x="267.5" y="490" width="65" height="50" as="geometry" />
        </mxCell>
        <mxCell id="Phm8OfdDfyKniIvOWUuk-69" value="変更行数&lt;br&gt;+700&lt;br&gt;-200" style="text;html=1;strokeColor=none;fillColor=none;align=center;verticalAlign=middle;whiteSpace=wrap;rounded=0;" parent="1" vertex="1">
          <mxGeometry x="562.5" y="490" width="65" height="50" as="geometry" />
        </mxCell>
        <mxCell id="Phm8OfdDfyKniIvOWUuk-76" style="edgeStyle=orthogonalEdgeStyle;rounded=0;orthogonalLoop=1;jettySize=auto;html=1;entryX=0;entryY=0.5;entryDx=0;entryDy=0;" parent="1" source="Phm8OfdDfyKniIvOWUuk-70" target="Phm8OfdDfyKniIvOWUuk-52" edge="1">
          <mxGeometry relative="1" as="geometry" />
        </mxCell>
        <mxCell id="Phm8OfdDfyKniIvOWUuk-70" value="" style="ellipse;whiteSpace=wrap;html=1;aspect=fixed;dashed=1;" parent="1" vertex="1">
          <mxGeometry x="160" y="540" width="80" height="80" as="geometry" />
        </mxCell>
        <mxCell id="Phm8OfdDfyKniIvOWUuk-71" value="" style="rounded=0;whiteSpace=wrap;html=1;" parent="1" vertex="1">
          <mxGeometry x="185" y="565" width="30" height="30" as="geometry" />
        </mxCell>
        <mxCell id="Phm8OfdDfyKniIvOWUuk-72" value="" style="edgeStyle=orthogonalEdgeStyle;rounded=0;orthogonalLoop=1;jettySize=auto;html=1;entryX=0.5;entryY=1;entryDx=0;entryDy=0;" parent="1" source="Phm8OfdDfyKniIvOWUuk-73" target="Phm8OfdDfyKniIvOWUuk-70" edge="1">
          <mxGeometry relative="1" as="geometry" />
        </mxCell>
        <mxCell id="Phm8OfdDfyKniIvOWUuk-73" value="" style="sketch=0;outlineConnect=0;fontColor=#232F3E;gradientColor=none;fillColor=#232F3D;strokeColor=none;dashed=0;verticalLabelPosition=bottom;verticalAlign=top;align=center;html=1;fontSize=12;fontStyle=0;aspect=fixed;pointerEvents=1;shape=mxgraph.aws4.user;" parent="1" vertex="1">
          <mxGeometry x="186" y="648" width="28" height="28" as="geometry" />
        </mxCell>
        <mxCell id="Phm8OfdDfyKniIvOWUuk-77" value="変更行数&lt;br&gt;+200&lt;br&gt;-100" style="text;html=1;strokeColor=none;fillColor=none;align=center;verticalAlign=middle;whiteSpace=wrap;rounded=0;" parent="1" vertex="1">
          <mxGeometry x="167.5" y="490" width="65" height="50" as="geometry" />
        </mxCell>
        <mxCell id="Phm8OfdDfyKniIvOWUuk-90" style="edgeStyle=orthogonalEdgeStyle;rounded=0;orthogonalLoop=1;jettySize=auto;html=1;entryX=0;entryY=0.5;entryDx=0;entryDy=0;" parent="1" source="Phm8OfdDfyKniIvOWUuk-79" target="Phm8OfdDfyKniIvOWUuk-85" edge="1">
          <mxGeometry relative="1" as="geometry" />
        </mxCell>
        <mxCell id="Phm8OfdDfyKniIvOWUuk-79" value="" style="ellipse;whiteSpace=wrap;html=1;aspect=fixed;dashed=1;" parent="1" vertex="1">
          <mxGeometry x="359.5" y="540" width="80" height="80" as="geometry" />
        </mxCell>
        <mxCell id="Phm8OfdDfyKniIvOWUuk-80" value="" style="rounded=0;whiteSpace=wrap;html=1;" parent="1" vertex="1">
          <mxGeometry x="384.5" y="565" width="30" height="30" as="geometry" />
        </mxCell>
        <mxCell id="Phm8OfdDfyKniIvOWUuk-81" value="" style="edgeStyle=orthogonalEdgeStyle;rounded=0;orthogonalLoop=1;jettySize=auto;html=1;entryX=0.5;entryY=1;entryDx=0;entryDy=0;" parent="1" source="Phm8OfdDfyKniIvOWUuk-82" target="Phm8OfdDfyKniIvOWUuk-79" edge="1">
          <mxGeometry relative="1" as="geometry" />
        </mxCell>
        <mxCell id="Phm8OfdDfyKniIvOWUuk-82" value="" style="sketch=0;outlineConnect=0;fontColor=#232F3E;gradientColor=none;fillColor=#232F3D;strokeColor=none;dashed=0;verticalLabelPosition=bottom;verticalAlign=top;align=center;html=1;fontSize=12;fontStyle=0;aspect=fixed;pointerEvents=1;shape=mxgraph.aws4.user;" parent="1" vertex="1">
          <mxGeometry x="385.5" y="648" width="28" height="28" as="geometry" />
        </mxCell>
        <mxCell id="Phm8OfdDfyKniIvOWUuk-83" value="変更行数&lt;br&gt;+200&lt;br&gt;-100" style="text;html=1;strokeColor=none;fillColor=none;align=center;verticalAlign=middle;whiteSpace=wrap;rounded=0;" parent="1" vertex="1">
          <mxGeometry x="367" y="490" width="65" height="50" as="geometry" />
        </mxCell>
        <mxCell id="Phm8OfdDfyKniIvOWUuk-93" style="edgeStyle=orthogonalEdgeStyle;rounded=0;orthogonalLoop=1;jettySize=auto;html=1;entryX=0;entryY=0.5;entryDx=0;entryDy=0;" parent="1" source="Phm8OfdDfyKniIvOWUuk-85" target="Phm8OfdDfyKniIvOWUuk-58" edge="1">
          <mxGeometry relative="1" as="geometry" />
        </mxCell>
        <mxCell id="Phm8OfdDfyKniIvOWUuk-85" value="" style="ellipse;whiteSpace=wrap;html=1;aspect=fixed;dashed=1;" parent="1" vertex="1">
          <mxGeometry x="459.5" y="540" width="80" height="80" as="geometry" />
        </mxCell>
        <mxCell id="Phm8OfdDfyKniIvOWUuk-86" value="" style="rounded=0;whiteSpace=wrap;html=1;" parent="1" vertex="1">
          <mxGeometry x="484.5" y="565" width="30" height="30" as="geometry" />
        </mxCell>
        <mxCell id="Phm8OfdDfyKniIvOWUuk-87" value="" style="edgeStyle=orthogonalEdgeStyle;rounded=0;orthogonalLoop=1;jettySize=auto;html=1;entryX=0.5;entryY=1;entryDx=0;entryDy=0;" parent="1" source="Phm8OfdDfyKniIvOWUuk-88" target="Phm8OfdDfyKniIvOWUuk-85" edge="1">
          <mxGeometry relative="1" as="geometry" />
        </mxCell>
        <mxCell id="Phm8OfdDfyKniIvOWUuk-88" value="" style="sketch=0;outlineConnect=0;fontColor=#232F3E;gradientColor=none;fillColor=#232F3D;strokeColor=none;dashed=0;verticalLabelPosition=bottom;verticalAlign=top;align=center;html=1;fontSize=12;fontStyle=0;aspect=fixed;pointerEvents=1;shape=mxgraph.aws4.user;" parent="1" vertex="1">
          <mxGeometry x="485.5" y="648" width="28" height="28" as="geometry" />
        </mxCell>
        <mxCell id="Phm8OfdDfyKniIvOWUuk-89" value="変更行数&lt;br&gt;+100&lt;br&gt;-10" style="text;html=1;strokeColor=none;fillColor=none;align=center;verticalAlign=middle;whiteSpace=wrap;rounded=0;" parent="1" vertex="1">
          <mxGeometry x="464.5" y="490" width="65" height="50" as="geometry" />
        </mxCell>
        <mxCell id="Phm8OfdDfyKniIvOWUuk-91" value="" style="rounded=0;whiteSpace=wrap;html=1;" parent="1" vertex="1">
          <mxGeometry x="590" y="562.5" width="30" height="30" as="geometry" />
        </mxCell>
        <mxCell id="Phm8OfdDfyKniIvOWUuk-92" value="" style="rounded=0;whiteSpace=wrap;html=1;" parent="1" vertex="1">
          <mxGeometry x="575" y="567.5" width="30" height="30" as="geometry" />
        </mxCell>
        <mxCell id="Phm8OfdDfyKniIvOWUuk-94" value="PRマージ" style="text;html=1;align=center;verticalAlign=middle;whiteSpace=wrap;rounded=0;" parent="1" vertex="1">
          <mxGeometry x="110" y="330" width="70" height="30" as="geometry" />
        </mxCell>
        <mxCell id="Phm8OfdDfyKniIvOWUuk-96" value="PRマージ" style="text;html=1;align=center;verticalAlign=middle;whiteSpace=wrap;rounded=0;" parent="1" vertex="1">
          <mxGeometry x="110" y="620" width="70" height="30" as="geometry" />
        </mxCell>
        <mxCell id="F51sy77VU0Ca32_vkjNk-1" value="" style="rounded=0;whiteSpace=wrap;html=1;fillColor=#d5e8d4;strokeColor=none;" vertex="1" parent="1">
          <mxGeometry x="-80" y="820" width="740" height="60" as="geometry" />
        </mxCell>
        <mxCell id="F51sy77VU0Ca32_vkjNk-2" style="edgeStyle=orthogonalEdgeStyle;rounded=0;orthogonalLoop=1;jettySize=auto;html=1;entryX=0;entryY=0.5;entryDx=0;entryDy=0;" edge="1" parent="1" source="F51sy77VU0Ca32_vkjNk-3" target="F51sy77VU0Ca32_vkjNk-17">
          <mxGeometry relative="1" as="geometry" />
        </mxCell>
        <mxCell id="F51sy77VU0Ca32_vkjNk-3" value="" style="ellipse;whiteSpace=wrap;html=1;aspect=fixed;dashed=1;" vertex="1" parent="1">
          <mxGeometry x="60" y="810" width="80" height="80" as="geometry" />
        </mxCell>
        <mxCell id="F51sy77VU0Ca32_vkjNk-4" value="" style="rounded=0;whiteSpace=wrap;html=1;" vertex="1" parent="1">
          <mxGeometry x="82.5" y="825" width="30" height="30" as="geometry" />
        </mxCell>
        <mxCell id="F51sy77VU0Ca32_vkjNk-5" value="" style="rounded=0;whiteSpace=wrap;html=1;" vertex="1" parent="1">
          <mxGeometry x="67.5" y="830" width="30" height="30" as="geometry" />
        </mxCell>
        <mxCell id="F51sy77VU0Ca32_vkjNk-6" value="" style="rounded=0;whiteSpace=wrap;html=1;" vertex="1" parent="1">
          <mxGeometry x="92.5" y="835" width="30" height="30" as="geometry" />
        </mxCell>
        <mxCell id="F51sy77VU0Ca32_vkjNk-7" value="" style="rounded=0;whiteSpace=wrap;html=1;" vertex="1" parent="1">
          <mxGeometry x="77.5" y="840" width="30" height="30" as="geometry" />
        </mxCell>
        <mxCell id="F51sy77VU0Ca32_vkjNk-8" value="" style="rounded=0;whiteSpace=wrap;html=1;" vertex="1" parent="1">
          <mxGeometry x="102.5" y="845" width="30" height="30" as="geometry" />
        </mxCell>
        <mxCell id="F51sy77VU0Ca32_vkjNk-9" value="" style="rounded=0;whiteSpace=wrap;html=1;" vertex="1" parent="1">
          <mxGeometry x="87.5" y="850" width="30" height="30" as="geometry" />
        </mxCell>
        <mxCell id="F51sy77VU0Ca32_vkjNk-10" value="&lt;font style=&quot;font-size: 36px;&quot;&gt;🙅‍♂️&lt;/font&gt;" style="text;html=1;strokeColor=none;fillColor=none;align=center;verticalAlign=middle;whiteSpace=wrap;rounded=0;" vertex="1" parent="1">
          <mxGeometry x="-80" y="760" width="50" height="60" as="geometry" />
        </mxCell>
        <mxCell id="F51sy77VU0Ca32_vkjNk-12" value="" style="sketch=0;outlineConnect=0;fontColor=#232F3E;gradientColor=none;fillColor=#232F3D;strokeColor=none;dashed=0;verticalLabelPosition=bottom;verticalAlign=top;align=center;html=1;fontSize=12;fontStyle=0;aspect=fixed;pointerEvents=1;shape=mxgraph.aws4.user;" vertex="1" parent="1">
          <mxGeometry x="122.5" y="1060" width="28" height="28" as="geometry" />
        </mxCell>
        <mxCell id="F51sy77VU0Ca32_vkjNk-14" value="" style="sketch=0;outlineConnect=0;fontColor=#232F3E;gradientColor=none;fillColor=#232F3D;strokeColor=none;dashed=0;verticalLabelPosition=bottom;verticalAlign=top;align=center;html=1;fontSize=12;fontStyle=0;aspect=fixed;pointerEvents=1;shape=mxgraph.aws4.user;" vertex="1" parent="1">
          <mxGeometry x="212" y="1060" width="28" height="28" as="geometry" />
        </mxCell>
        <mxCell id="F51sy77VU0Ca32_vkjNk-15" value="トランクブランチ" style="text;html=1;strokeColor=none;fillColor=none;align=center;verticalAlign=middle;whiteSpace=wrap;rounded=0;" vertex="1" parent="1">
          <mxGeometry x="-71" y="838.75" width="111" height="22.5" as="geometry" />
        </mxCell>
        <mxCell id="F51sy77VU0Ca32_vkjNk-16" style="edgeStyle=orthogonalEdgeStyle;rounded=0;orthogonalLoop=1;jettySize=auto;html=1;entryX=0;entryY=0.5;entryDx=0;entryDy=0;" edge="1" parent="1" source="F51sy77VU0Ca32_vkjNk-17" target="F51sy77VU0Ca32_vkjNk-23">
          <mxGeometry relative="1" as="geometry" />
        </mxCell>
        <mxCell id="F51sy77VU0Ca32_vkjNk-17" value="" style="ellipse;whiteSpace=wrap;html=1;aspect=fixed;dashed=1;" vertex="1" parent="1">
          <mxGeometry x="320" y="810" width="80" height="80" as="geometry" />
        </mxCell>
        <mxCell id="F51sy77VU0Ca32_vkjNk-18" value="" style="rounded=0;whiteSpace=wrap;html=1;" vertex="1" parent="1">
          <mxGeometry x="342.5" y="827.5" width="30" height="30" as="geometry" />
        </mxCell>
        <mxCell id="F51sy77VU0Ca32_vkjNk-19" value="" style="rounded=0;whiteSpace=wrap;html=1;" vertex="1" parent="1">
          <mxGeometry x="327.5" y="832.5" width="30" height="30" as="geometry" />
        </mxCell>
        <mxCell id="F51sy77VU0Ca32_vkjNk-20" value="" style="rounded=0;whiteSpace=wrap;html=1;" vertex="1" parent="1">
          <mxGeometry x="352.5" y="837.5" width="30" height="30" as="geometry" />
        </mxCell>
        <mxCell id="F51sy77VU0Ca32_vkjNk-21" value="" style="rounded=0;whiteSpace=wrap;html=1;" vertex="1" parent="1">
          <mxGeometry x="337.5" y="842.5" width="30" height="30" as="geometry" />
        </mxCell>
        <mxCell id="F51sy77VU0Ca32_vkjNk-22" value="" style="rounded=0;whiteSpace=wrap;html=1;" vertex="1" parent="1">
          <mxGeometry x="362.5" y="847.5" width="30" height="30" as="geometry" />
        </mxCell>
        <mxCell id="F51sy77VU0Ca32_vkjNk-23" value="" style="ellipse;whiteSpace=wrap;html=1;aspect=fixed;dashed=1;" vertex="1" parent="1">
          <mxGeometry x="520" y="810" width="80" height="80" as="geometry" />
        </mxCell>
        <mxCell id="F51sy77VU0Ca32_vkjNk-24" value="" style="rounded=0;whiteSpace=wrap;html=1;" vertex="1" parent="1">
          <mxGeometry x="542.5" y="822.5" width="30" height="30" as="geometry" />
        </mxCell>
        <mxCell id="F51sy77VU0Ca32_vkjNk-25" value="" style="rounded=0;whiteSpace=wrap;html=1;" vertex="1" parent="1">
          <mxGeometry x="527.5" y="827.5" width="30" height="30" as="geometry" />
        </mxCell>
        <mxCell id="F51sy77VU0Ca32_vkjNk-26" value="" style="rounded=0;whiteSpace=wrap;html=1;" vertex="1" parent="1">
          <mxGeometry x="552.5" y="832.5" width="30" height="30" as="geometry" />
        </mxCell>
        <mxCell id="F51sy77VU0Ca32_vkjNk-27" value="" style="rounded=0;whiteSpace=wrap;html=1;" vertex="1" parent="1">
          <mxGeometry x="537.5" y="837.5" width="30" height="30" as="geometry" />
        </mxCell>
        <mxCell id="F51sy77VU0Ca32_vkjNk-28" value="" style="rounded=0;whiteSpace=wrap;html=1;" vertex="1" parent="1">
          <mxGeometry x="562.5" y="842.5" width="30" height="30" as="geometry" />
        </mxCell>
        <mxCell id="F51sy77VU0Ca32_vkjNk-29" value="" style="rounded=0;whiteSpace=wrap;html=1;" vertex="1" parent="1">
          <mxGeometry x="547.5" y="847.5" width="30" height="30" as="geometry" />
        </mxCell>
        <mxCell id="F51sy77VU0Ca32_vkjNk-30" style="edgeStyle=orthogonalEdgeStyle;rounded=0;orthogonalLoop=1;jettySize=auto;html=1;entryX=0.5;entryY=1;entryDx=0;entryDy=0;dashed=1;" edge="1" parent="1" source="F51sy77VU0Ca32_vkjNk-31" target="F51sy77VU0Ca32_vkjNk-23">
          <mxGeometry relative="1" as="geometry">
            <mxPoint x="561.5" y="898" as="targetPoint" />
          </mxGeometry>
        </mxCell>
        <mxCell id="F51sy77VU0Ca32_vkjNk-31" value="" style="sketch=0;outlineConnect=0;fontColor=#232F3E;gradientColor=none;fillColor=#232F3D;strokeColor=none;dashed=0;verticalLabelPosition=bottom;verticalAlign=top;align=center;html=1;fontSize=12;fontStyle=0;aspect=fixed;pointerEvents=1;shape=mxgraph.aws4.user;" vertex="1" parent="1">
          <mxGeometry x="546" y="918" width="28" height="28" as="geometry" />
        </mxCell>
        <mxCell id="F51sy77VU0Ca32_vkjNk-32" value="変更行数&lt;br&gt;+12,000&lt;br&gt;-2,000" style="text;html=1;strokeColor=none;fillColor=none;align=center;verticalAlign=middle;whiteSpace=wrap;rounded=0;" vertex="1" parent="1">
          <mxGeometry x="67.5" y="760" width="65" height="50" as="geometry" />
        </mxCell>
        <mxCell id="F51sy77VU0Ca32_vkjNk-33" value="変更行数&lt;br&gt;+7,500&lt;br&gt;-4,000" style="text;html=1;strokeColor=none;fillColor=none;align=center;verticalAlign=middle;whiteSpace=wrap;rounded=0;" vertex="1" parent="1">
          <mxGeometry x="327.5" y="760" width="65" height="50" as="geometry" />
        </mxCell>
        <mxCell id="F51sy77VU0Ca32_vkjNk-34" value="変更行数&lt;br&gt;+9,000&lt;br&gt;-1,500" style="text;html=1;strokeColor=none;fillColor=none;align=center;verticalAlign=middle;whiteSpace=wrap;rounded=0;" vertex="1" parent="1">
          <mxGeometry x="530" y="760" width="65" height="50" as="geometry" />
        </mxCell>
        <mxCell id="F51sy77VU0Ca32_vkjNk-35" value="PRマージ" style="text;html=1;align=center;verticalAlign=middle;whiteSpace=wrap;rounded=0;" vertex="1" parent="1">
          <mxGeometry x="110" y="890" width="70" height="30" as="geometry" />
        </mxCell>
        <mxCell id="F51sy77VU0Ca32_vkjNk-36" value="" style="rounded=0;whiteSpace=wrap;html=1;fillColor=#dae8fc;strokeColor=none;" vertex="1" parent="1">
          <mxGeometry x="40" y="1000" width="330" height="40" as="geometry" />
        </mxCell>
        <mxCell id="F51sy77VU0Ca32_vkjNk-38" value="" style="shape=parallelogram;perimeter=parallelogramPerimeter;whiteSpace=wrap;html=1;fixedSize=1;fillColor=#dae8fc;strokeColor=none;size=20;flipH=1;" vertex="1" parent="1">
          <mxGeometry y="880" width="60" height="160" as="geometry" />
        </mxCell>
        <mxCell id="F51sy77VU0Ca32_vkjNk-39" value="" style="ellipse;whiteSpace=wrap;html=1;aspect=fixed;dashed=1;" vertex="1" parent="1">
          <mxGeometry x="50" y="980" width="80" height="80" as="geometry" />
        </mxCell>
        <mxCell id="F51sy77VU0Ca32_vkjNk-40" value="" style="rounded=0;whiteSpace=wrap;html=1;" vertex="1" parent="1">
          <mxGeometry x="82.5" y="1005" width="30" height="30" as="geometry" />
        </mxCell>
        <mxCell id="F51sy77VU0Ca32_vkjNk-41" value="" style="rounded=0;whiteSpace=wrap;html=1;" vertex="1" parent="1">
          <mxGeometry x="67.5" y="1010" width="31" height="30" as="geometry" />
        </mxCell>
        <mxCell id="F51sy77VU0Ca32_vkjNk-46" value="" style="shape=parallelogram;perimeter=parallelogramPerimeter;whiteSpace=wrap;html=1;fixedSize=1;fillColor=#dae8fc;strokeColor=none;size=20;flipH=0;" vertex="1" parent="1">
          <mxGeometry x="362.5" y="880" width="60" height="160" as="geometry" />
        </mxCell>
        <mxCell id="F51sy77VU0Ca32_vkjNk-47" value="" style="ellipse;whiteSpace=wrap;html=1;aspect=fixed;dashed=1;" vertex="1" parent="1">
          <mxGeometry x="140" y="980" width="80" height="80" as="geometry" />
        </mxCell>
        <mxCell id="F51sy77VU0Ca32_vkjNk-48" value="" style="rounded=0;whiteSpace=wrap;html=1;" vertex="1" parent="1">
          <mxGeometry x="165" y="1005" width="30" height="30" as="geometry" />
        </mxCell>
        <mxCell id="F51sy77VU0Ca32_vkjNk-50" value="" style="ellipse;whiteSpace=wrap;html=1;aspect=fixed;dashed=1;" vertex="1" parent="1">
          <mxGeometry x="227.5" y="980" width="80" height="80" as="geometry" />
        </mxCell>
        <mxCell id="F51sy77VU0Ca32_vkjNk-51" value="" style="rounded=0;whiteSpace=wrap;html=1;" vertex="1" parent="1">
          <mxGeometry x="252.5" y="1005" width="30" height="30" as="geometry" />
        </mxCell>
        <mxCell id="F51sy77VU0Ca32_vkjNk-52" value="" style="ellipse;whiteSpace=wrap;html=1;aspect=fixed;dashed=1;" vertex="1" parent="1">
          <mxGeometry x="317.5" y="980" width="80" height="80" as="geometry" />
        </mxCell>
        <mxCell id="F51sy77VU0Ca32_vkjNk-53" value="" style="rounded=0;whiteSpace=wrap;html=1;" vertex="1" parent="1">
          <mxGeometry x="350" y="1005" width="30" height="30" as="geometry" />
        </mxCell>
        <mxCell id="F51sy77VU0Ca32_vkjNk-54" value="" style="rounded=0;whiteSpace=wrap;html=1;" vertex="1" parent="1">
          <mxGeometry x="335" y="1010" width="31" height="30" as="geometry" />
        </mxCell>
      </root>
    </mxGraphModel>
  </diagram>
</mxfile>
